<svg width="512" height="625" viewBox="0 0 512 625" fill="none" xmlns="http://www.w3.org/2000/svg">
<circle cx="256" cy="312" r="256" fill="#F44800"/>
<path d="M338.572 177C327.906 177 316.906 176.167 305.572 174.5C294.572 172.5 283.406 170.333 272.072 168V282.5H346.072V312H272.072V500H218.072V159C216.406 158.667 214.739 158.5 213.072 158.5C211.739 158.5 210.239 158.5 208.572 158.5C199.906 158.5 191.739 159.667 184.072 162C176.406 164.333 169.739 168.333 164.072 174C158.739 179.667 154.406 187.333 151.072 197C148.072 206.333 146.572 218.167 146.572 232.5C146.572 250.5 148.739 265.667 153.072 278C157.739 290 163.072 298.5 169.072 303.5C129.406 303.5 109.572 281.667 109.572 238C109.572 222 112.239 207.167 117.572 193.5C122.906 179.833 131.239 168 142.572 158C153.906 147.667 168.239 139.667 185.572 134C203.239 128 224.239 125 248.572 125C256.906 125 264.739 125.333 272.072 126C279.739 126.667 287.072 127.333 294.072 128C301.072 128.667 308.239 129.333 315.572 130C322.906 130.667 330.739 131 339.072 131C347.406 131 355.239 130.667 362.572 130C369.906 129 376.906 127.333 383.572 125C382.906 136.667 381.239 146 378.572 153C376.239 159.667 373.072 164.833 369.072 168.5C365.072 171.833 360.406 174.167 355.072 175.5C350.072 176.5 344.572 177 338.572 177Z" fill="white"/>
</svg>
